<svg id="Layer_1" data-name="Layer 1" xmlns="http://www.w3.org/2000/svg" width="180" height="60" viewBox="0 0 180 60">
  <defs>
    <style>
      .cls-1 {
        fill: #3a6ef2;
      }

      .cls-2 {
        fill: none;
        stroke: #3a6ef2;
        stroke-miterlimit: 10;
      }

      .cls-3 {
        fill: #fff;
      }
    </style>
  </defs>
  <path class="cls-1" d="M9.9,29.15s-.2-10,9.4-7c.05.15,3.46-7.57,11.64-5.49.15,0,7.16,2.39,7.21,9.6.05.16,9.86-2.94,10,7.78.05.15-.3,4.77-5.74,6.5,0,.1-11.23,0-11.23,0l-1.88,2.13,1,1.48,1.57-1.58H42.52s8.44-1.42,7.67-11c.11-.1-1.47-8.29-10.46-7.68.05.16-1.93-9.5-10.78-9.55-.05,0-6.91-.05-10.41,5.39,0,.05-9-2.24-10.47,7.26-.05.05-8.48.36-7,10.12.05.2.81,4.11,6.71,5.43.05.15,4.91,0,4.91,0l8.5-8.15L20,33.11l-7.77,7.42-4.32,0a6.24,6.24,0,0,1-4.93-6.2C3.09,34.38,3.4,28.44,9.9,29.15Z"/>
  <polygon class="cls-1" points="16.91 40.58 19.1 40.53 28.8 30.77 30.02 32.25 19.4 42.51 15.19 42.46 16.91 40.58"/>
  <path class="cls-1" d="M23.26,42.36l7.17-7.16,4,.1L37,32.76,38.35,34l-2.89,3.1L31.19,37l-5.08,5.49Z"/>
  <ellipse class="cls-2" cx="21.33" cy="32.86" rx="1.73" ry="1.68"/>
  <ellipse class="cls-2" cx="30.43" cy="30.6" rx="1.73" ry="1.68"/>
  <ellipse class="cls-2" cx="38.61" cy="32.32" rx="1.73" ry="1.68"/>
  <ellipse class="cls-2" cx="28.85" cy="44.01" rx="1.73" ry="1.68"/>
  <g>
    <path class="cls-3" d="M61.06,40a6.43,6.43,0,0,1-2.86-.58,5.32,5.32,0,0,1-2-1.53,6.33,6.33,0,0,1-1.12-2,6.86,6.86,0,0,1-.36-2.14v-.37a7,7,0,0,1,.37-2.26,6,6,0,0,1,1.13-2,5.59,5.59,0,0,1,1.94-1.45A6.38,6.38,0,0,1,61,27a6.69,6.69,0,0,1,2.94.62,5.19,5.19,0,0,1,2,1.73,5.25,5.25,0,0,1,.9,2.58H64.08a2.49,2.49,0,0,0-.54-1.26,2.75,2.75,0,0,0-1.08-.81A3.74,3.74,0,0,0,61,29.61a3.56,3.56,0,0,0-1.46.29,2.87,2.87,0,0,0-1.07.81,3.7,3.7,0,0,0-.65,1.23,5.31,5.31,0,0,0-.23,1.59,5.18,5.18,0,0,0,.23,1.57,3.58,3.58,0,0,0,.67,1.25,2.85,2.85,0,0,0,1.1.8,3.75,3.75,0,0,0,1.5.28,3.69,3.69,0,0,0,2.16-.62,2.52,2.52,0,0,0,1.06-1.72H67a5.47,5.47,0,0,1-.9,2.47,5.33,5.33,0,0,1-2,1.78A6.63,6.63,0,0,1,61.06,40Z"/>
    <path class="cls-3" d="M71.35,39.92a4.06,4.06,0,0,1-1.74-.35,2.77,2.77,0,0,1-1.17-1A2.9,2.9,0,0,1,68,37a2.57,2.57,0,0,1,.52-1.66A3,3,0,0,1,70,34.35,6.85,6.85,0,0,1,72.17,34h2v1.49h-2a1.54,1.54,0,0,0-1.08.35,1.21,1.21,0,0,0-.38.93,1.17,1.17,0,0,0,.38.9,1.54,1.54,0,0,0,1.08.34,1.94,1.94,0,0,0,.82-.16,1.35,1.35,0,0,0,.6-.54,2.38,2.38,0,0,0,.26-1.08l.64.67A3.86,3.86,0,0,1,74,38.56a2.59,2.59,0,0,1-1,1A3.49,3.49,0,0,1,71.35,39.92Zm2.94-.24V37h-.46V34a1.51,1.51,0,0,0-.33-1.06,1.46,1.46,0,0,0-1.08-.35c-.24,0-.57,0-1,0s-.82,0-1.25,0L69,32.72V30.45l.91-.06c.35,0,.71,0,1.08-.05l1,0a6.2,6.2,0,0,1,2.38.4,3.12,3.12,0,0,1,1.47,1.22,3.91,3.91,0,0,1,.5,2.1v5.64Z"/>
    <path class="cls-3" d="M78.71,39.68V30.47h2.14v4h-.16a6.4,6.4,0,0,1,.37-2.35,2.72,2.72,0,0,1,1.1-1.41,3.22,3.22,0,0,1,1.8-.48h.11a3,3,0,0,1,2.47,1.06,5,5,0,0,1,.85,3.18v5.26H84.7V34.27a1.71,1.71,0,0,0-.44-1.21,1.55,1.55,0,0,0-1.18-.47,1.63,1.63,0,0,0-1.22.48,1.72,1.72,0,0,0-.46,1.25v5.36Z"/>
    <path class="cls-3" d="M88.56,32.44v-2h6.59v2Zm5.3,7.36a6.12,6.12,0,0,1-2.25-.34,2.31,2.31,0,0,1-1.26-1.16A5.21,5.21,0,0,1,90,36.09V28h2.5v8.21a1.37,1.37,0,0,0,.35,1,1.33,1.33,0,0,0,1,.34h1.36V39.8Z"/>
    <path class="cls-3" d="M101.16,40a5,5,0,0,1-2.08-.4,4.38,4.38,0,0,1-1.5-1.08A5,5,0,0,1,96.67,37a5.23,5.23,0,0,1-.31-1.74v-.34a5.23,5.23,0,0,1,.31-1.77,4.9,4.9,0,0,1,.9-1.53A4.4,4.4,0,0,1,99,30.55a4.78,4.78,0,0,1,2-.4,4.33,4.33,0,0,1,4.06,2.4,5.08,5.08,0,0,1,.53,2.33v.9H97.49V34.25H104l-.87.71a3.71,3.71,0,0,0-.24-1.41,1.92,1.92,0,0,0-.69-.9,2,2,0,0,0-1.16-.31,2.08,2.08,0,0,0-1.19.32,2,2,0,0,0-.74.93,3.92,3.92,0,0,0-.25,1.5,4.18,4.18,0,0,0,.23,1.44,2,2,0,0,0,.74.95,2.7,2.7,0,0,0,2.53.05,1.45,1.45,0,0,0,.63-.7h2.48a4,4,0,0,1-.79,1.64,4,4,0,0,1-1.48,1.13A4.93,4.93,0,0,1,101.16,40Z"/>
    <path class="cls-3" d="M111.56,40a5.06,5.06,0,0,1-2.07-.39A4.23,4.23,0,0,1,108,38.54a4.3,4.3,0,0,1-.88-1.52,5.5,5.5,0,0,1-.28-1.76v-.32a5.4,5.4,0,0,1,.3-1.8,4.64,4.64,0,0,1,.89-1.54,4.09,4.09,0,0,1,1.47-1.06,5,5,0,0,1,2-.39,4.85,4.85,0,0,1,2.2.48,3.87,3.87,0,0,1,2.17,3.3h-2.64a1.73,1.73,0,0,0-.5-1,1.69,1.69,0,0,0-1.23-.43,1.82,1.82,0,0,0-1.12.34,2,2,0,0,0-.67.93,4.11,4.11,0,0,0-.21,1.39,4.05,4.05,0,0,0,.2,1.34,1.83,1.83,0,0,0,.64.92,1.93,1.93,0,0,0,1.17.33,2,2,0,0,0,.92-.19,1.67,1.67,0,0,0,.61-.54,1.77,1.77,0,0,0,.27-.8H116a3.79,3.79,0,0,1-.63,2,3.93,3.93,0,0,1-1.57,1.34A5,5,0,0,1,111.56,40Z"/>
    <path class="cls-3" d="M117.7,39.68V27.41h2.69v7.08H120a6.69,6.69,0,0,1,.35-2.35,3,3,0,0,1,1-1.46,2.9,2.9,0,0,1,1.73-.5h.12a2.75,2.75,0,0,1,2.34,1.09,5.24,5.24,0,0,1,.81,3.17v5.24h-2.69V34.27a1.69,1.69,0,0,0-.45-1.22,1.55,1.55,0,0,0-1.17-.46,1.6,1.6,0,0,0-1.22.49,1.77,1.77,0,0,0-.46,1.29v5.31Z"/>
    <path class="cls-3" d="M134.45,40a6.43,6.43,0,0,1-2.86-.58,5.32,5.32,0,0,1-2-1.53,6.33,6.33,0,0,1-1.12-2,6.86,6.86,0,0,1-.36-2.14v-.37a7,7,0,0,1,.37-2.26,6,6,0,0,1,1.13-2,5.59,5.59,0,0,1,1.94-1.45,6.38,6.38,0,0,1,2.76-.55,6.69,6.69,0,0,1,2.94.62,5.19,5.19,0,0,1,2,1.73,5.25,5.25,0,0,1,.9,2.58h-2.78a2.58,2.58,0,0,0-.54-1.26,2.75,2.75,0,0,0-1.08-.81,3.74,3.74,0,0,0-1.49-.29,3.56,3.56,0,0,0-1.46.29,2.87,2.87,0,0,0-1.07.81,3.7,3.7,0,0,0-.65,1.23,5,5,0,0,0-.23,1.59,4.88,4.88,0,0,0,.23,1.57,3.58,3.58,0,0,0,.67,1.25,2.85,2.85,0,0,0,1.1.8,3.75,3.75,0,0,0,1.5.28,3.69,3.69,0,0,0,2.16-.62,2.56,2.56,0,0,0,1.06-1.72h2.76a5.47,5.47,0,0,1-.9,2.47,5.33,5.33,0,0,1-2,1.78A6.63,6.63,0,0,1,134.45,40Z"/>
    <path class="cls-3" d="M141.14,29.39v-2h3.8v2Zm1.09,10.29V27.41h2.71V39.68Z"/>
    <path class="cls-3" d="M151.9,40a5.73,5.73,0,0,1-2.15-.37,4.56,4.56,0,0,1-2.58-2.54,4.94,4.94,0,0,1-.33-1.79v-.39a4.83,4.83,0,0,1,.34-1.82,4.49,4.49,0,0,1,1-1.53,4.84,4.84,0,0,1,1.61-1,5.57,5.57,0,0,1,2.1-.38,5.64,5.64,0,0,1,2.12.38,4.65,4.65,0,0,1,1.59,1,4.49,4.49,0,0,1,1,1.53,4.65,4.65,0,0,1,.36,1.82v.39a5,5,0,0,1-.34,1.79,4.64,4.64,0,0,1-1,1.5,4.87,4.87,0,0,1-1.59,1A5.84,5.84,0,0,1,151.9,40Zm0-2.27a2.43,2.43,0,0,0,1.31-.33,2.23,2.23,0,0,0,.8-.94,3.32,3.32,0,0,0,.27-1.35,3.19,3.19,0,0,0-.28-1.39,2.36,2.36,0,0,0-.82-.95,2.29,2.29,0,0,0-1.28-.35,2.31,2.31,0,0,0-1.28.35,2.36,2.36,0,0,0-.82.95,3.61,3.61,0,0,0,0,2.74,2,2,0,0,0,.8.94A2.44,2.44,0,0,0,151.9,37.73Z"/>
    <path class="cls-3" d="M162,40a3,3,0,0,1-2.46-1,4.82,4.82,0,0,1-.85-3.12V30.47h2.69V36a1.62,1.62,0,0,0,.42,1.18,1.48,1.48,0,0,0,1.12.44,1.6,1.6,0,0,0,1.18-.46,1.66,1.66,0,0,0,.45-1.23V30.47h2.69v9.21h-2.13V35.8h.18a6.52,6.52,0,0,1-.36,2.33,2.81,2.81,0,0,1-1.06,1.39,3.21,3.21,0,0,1-1.75.45Z"/>
    <path class="cls-3" d="M173.5,40a4.24,4.24,0,0,1-1.77-.36,4.13,4.13,0,0,1-1.39-1,4.4,4.4,0,0,1-.9-1.49,5.57,5.57,0,0,1-.31-1.85v-.38a5.52,5.52,0,0,1,.3-1.85,4.39,4.39,0,0,1,.85-1.51,4,4,0,0,1,1.36-1,4.16,4.16,0,0,1,1.76-.36,3.7,3.7,0,0,1,1.92.48,3.22,3.22,0,0,1,1.26,1.41,5.75,5.75,0,0,1,.5,2.3l-.7-.66V27.41h2.7V39.68H177V35.87h.37a5,5,0,0,1-.55,2.23,3.42,3.42,0,0,1-1.33,1.41A3.85,3.85,0,0,1,173.5,40Zm.68-2.26a2.39,2.39,0,0,0,1.13-.27,2.09,2.09,0,0,0,.82-.82,2.52,2.52,0,0,0,.32-1.29v-.63a2.31,2.31,0,0,0-.32-1.24,2.21,2.21,0,0,0-.84-.77,2.44,2.44,0,0,0-1.13-.27,2.13,2.13,0,0,0-1.2.34,2.47,2.47,0,0,0-.84.94,3.39,3.39,0,0,0,0,2.79,2.24,2.24,0,0,0,2.06,1.22Z"/>
  </g>
</svg>
